<svg xmlns="http://www.w3.org/2000/svg" viewBox="0 0 24 24" width="24" height="24" color="#000000" fill="none">
    <defs />
    <path fill="currentColor" d="M11.5,2.75 C7.783,2.75 4.75,5.815 4.75,9.621 C4.75,11.934 5.806,13.694 7.527,14.87 C7.737,15.014 7.94,15.153 8.085,15.267 C8.235,15.383 8.398,15.527 8.522,15.721 C8.639,15.904 8.701,16.092 8.743,16.268 C8.782,16.43 8.814,16.623 8.849,16.83 L8.911,17.205 C8.981,17.624 9.023,17.868 9.075,18.042 C9.099,18.121 9.117,18.161 9.128,18.178 L9.14,18.183 C9.167,18.194 9.223,18.218 9.292,18.226 C9.472,18.249 9.721,18.25 10.144,18.25 L12.756,18.25 C13.18,18.25 13.428,18.249 13.608,18.226 C13.69,18.216 13.773,18.178 13.773,18.178 C13.773,18.178 13.802,18.121 13.825,18.042 C13.877,17.868 13.919,17.624 13.989,17.205 L14.052,16.83 C14.086,16.622 14.118,16.428 14.158,16.266 C14.201,16.089 14.263,15.9 14.381,15.716 C14.506,15.522 14.669,15.378 14.819,15.262 C14.965,15.15 15.151,15.024 15.36,14.883 L15.378,14.87 C17.132,13.684 18.25,11.919 18.25,9.621 C18.25,9.206 18.586,8.871 19,8.871 C19.414,8.871 19.75,9.206 19.75,9.621 C19.75,12.481 18.328,14.686 16.219,16.113 C15.985,16.271 15.84,16.369 15.737,16.449 C15.678,16.494 15.652,16.52 15.642,16.53 C15.638,16.541 15.628,16.567 15.616,16.62 C15.591,16.722 15.567,16.861 15.527,17.099 L15.462,17.492 C15.401,17.857 15.345,18.196 15.263,18.47 C15.172,18.775 15.027,19.087 14.734,19.335 C14.581,19.465 14.417,19.552 14.25,19.611 L14.25,20.045 C14.25,20.478 14.25,20.874 14.207,21.197 C14.159,21.553 14.047,21.928 13.737,22.237 C13.428,22.546 13.053,22.659 12.697,22.707 C12.374,22.75 11.978,22.75 11.545,22.75 L11.455,22.75 C11.022,22.75 10.626,22.75 10.303,22.707 C9.947,22.659 9.572,22.546 9.263,22.237 C8.954,21.928 8.841,21.553 8.793,21.197 C8.75,20.874 8.75,20.478 8.75,20.045 L8.75,20 L8.75,19.643 C8.549,19.585 8.35,19.491 8.166,19.335 C7.873,19.087 7.728,18.775 7.637,18.47 C7.556,18.196 7.499,17.857 7.438,17.492 L7.373,17.099 C7.334,16.862 7.31,16.723 7.285,16.621 C7.273,16.569 7.263,16.543 7.259,16.531 C7.249,16.521 7.222,16.495 7.163,16.45 C7.06,16.369 6.914,16.268 6.68,16.109 C4.578,14.672 3.25,12.463 3.25,9.621 C3.25,5.009 6.932,1.25 11.5,1.25 C12.065,1.25 12.617,1.308 13.151,1.418 C13.557,1.502 13.818,1.898 13.734,2.304 C13.651,2.71 13.254,2.971 12.849,2.887 C12.413,2.797 11.962,2.75 11.5,2.75 Z M16.5,1.25 C16.814,1.25 17.094,1.445 17.203,1.74 L17.461,2.437 C17.823,3.415 17.939,3.681 18.129,3.871 C18.319,4.061 18.585,4.177 19.563,4.539 L20.26,4.797 C20.555,4.906 20.75,5.186 20.75,5.5 C20.75,5.814 20.555,6.094 20.26,6.203 L19.563,6.461 C18.585,6.823 18.319,6.939 18.129,7.129 C17.939,7.319 17.823,7.585 17.461,8.563 L17.203,9.26 C17.094,9.555 16.814,9.75 16.5,9.75 C16.186,9.75 15.906,9.555 15.797,9.26 L15.539,8.563 C15.177,7.585 15.061,7.319 14.871,7.129 C14.681,6.939 14.415,6.823 13.437,6.461 L12.74,6.203 C12.445,6.094 12.25,5.814 12.25,5.5 C12.25,5.186 12.445,4.906 12.74,4.797 L13.437,4.539 C14.415,4.177 14.681,4.061 14.871,3.871 C15.061,3.681 15.177,3.415 15.539,2.437 L15.797,1.74 C15.906,1.445 16.186,1.25 16.5,1.25 Z M10.25,19.75 L10.25,20 C10.25,20.493 10.252,20.787 10.28,20.997 C10.293,21.094 10.308,21.142 10.317,21.164 C10.32,21.165 10.324,21.167 10.328,21.169 C10.357,21.181 10.419,21.209 10.503,21.22 C10.713,21.248 11.007,21.25 11.5,21.25 C11.993,21.25 12.287,21.248 12.497,21.22 C12.581,21.209 12.643,21.181 12.672,21.169 C12.676,21.167 12.68,21.165 12.683,21.164 C12.692,21.142 12.707,21.094 12.72,20.997 C12.748,20.787 12.75,20.493 12.75,20 L12.75,19.75 Z M16.5,4.083 C16.345,4.412 16.17,4.693 15.932,4.932 C15.693,5.17 15.411,5.345 15.083,5.5 C15.411,5.655 15.693,5.83 15.932,6.068 C16.17,6.307 16.345,6.588 16.5,6.917 C16.655,6.588 16.83,6.307 17.068,6.068 C17.307,5.83 17.588,5.655 17.917,5.5 C17.588,5.345 17.307,5.17 17.068,4.932 C16.83,4.693 16.655,4.412 16.5,4.083 Z" />
</svg>